<?xml version="1.0" standalone="no"?>
<!DOCTYPE svg PUBLIC "-//W3C//DTD SVG 20010904//EN"
 "http://www.w3.org/TR/2001/REC-SVG-20010904/DTD/svg10.dtd">
<svg version="1.0" xmlns="http://www.w3.org/2000/svg"
 width="2000.000000pt" height="2000.000000pt" viewBox="0 0 2000.000000 2000.000000"
 preserveAspectRatio="xMidYMid meet">

<g transform="translate(0.000000,2000.000000) scale(0.100000,-0.100000)"
fill="#000000" stroke="none">
<path d="M9545 15880 c-123 -20 -204 -117 -205 -245 0 -145 102 -245 250 -245
100 0 175 46 223 135 30 55 29 164 0 220 -55 103 -154 153 -268 135z m101
-115 c26 -11 40 -26 56 -61 55 -125 -37 -245 -155 -203 -56 19 -80 56 -84 126
-4 68 9 98 56 130 39 27 77 29 127 8z"/>
<path d="M10169 15863 c-65 -34 -105 -87 -121 -163 -34 -166 74 -300 241 -300
95 1 155 31 205 104 21 31 26 51 26 96 l0 57 -46 7 c-26 3 -82 6 -124 6 l-78
0 -4 -39 -3 -38 69 -6 c37 -3 70 -8 73 -11 10 -9 -19 -46 -47 -61 -65 -34
-153 -7 -186 56 -25 50 -15 131 21 169 49 51 129 57 178 12 15 -13 43 -21 85
-26 62 -6 63 -5 57 17 -38 128 -211 188 -346 120z"/>
<path d="M10892 15753 c-178 -308 -214 -375 -202 -383 18 -11 104 -22 107 -13
12 35 46 74 61 69 9 -2 49 -10 89 -16 l71 -11 9 -47 8 -47 53 -8 c30 -5 56 -6
59 -3 5 5 -73 465 -84 492 -2 6 -23 15 -46 18 -23 4 -52 9 -64 12 -18 5 -27
-5 -61 -63z m98 -169 c7 -47 11 -87 9 -89 -5 -4 -100 13 -106 19 -6 5 70 156
78 156 4 0 12 -38 19 -86z"/>
<path d="M8891 15789 c-24 -5 -46 -10 -48 -13 -5 -4 76 -467 82 -474 1 -1 60
8 131 21 l129 24 -2 38 c-2 21 -5 41 -8 44 -3 3 -38 -1 -77 -7 -39 -7 -72 -11
-74 -9 -2 1 -17 81 -34 177 -34 193 -38 211 -48 209 -4 -1 -27 -5 -51 -10z"/>
<path d="M11461 15673 c-6 -21 -37 -126 -69 -233 l-59 -195 56 -17 c30 -9 56
-16 57 -15 1 1 18 61 39 132 21 72 41 133 44 137 4 4 29 -68 57 -160 l51 -167
53 -17 c30 -10 56 -16 58 -13 6 6 142 458 139 461 -1 1 -26 9 -55 18 -62 18
-52 33 -103 -146 -19 -65 -36 -118 -39 -118 -3 0 -28 76 -55 169 l-50 170 -41
10 c-23 6 -48 13 -57 17 -12 4 -18 -4 -26 -33z"/>
<path d="M8374 15666 c-91 -42 -121 -109 -86 -189 26 -59 59 -75 167 -83 89
-7 115 -19 115 -54 0 -23 -36 -50 -67 -50 -12 0 -28 9 -36 20 -8 11 -20 18
-28 16 -8 -3 -33 -10 -56 -16 -50 -12 -53 -26 -18 -68 67 -80 246 -56 305 40
23 37 26 101 7 137 -24 47 -59 63 -158 72 -76 8 -97 13 -111 30 -22 26 -22 33
-2 53 20 21 63 20 85 0 16 -14 22 -14 73 0 31 9 56 19 56 22 0 3 -7 18 -15 33
-32 62 -140 79 -231 37z"/>
<path d="M7615 15380 c-25 -6 -204 -82 -226 -96 -6 -3 182 -429 195 -441 3 -3
96 34 103 41 2 2 -13 38 -32 80 -19 42 -35 81 -35 87 0 21 36 5 111 -51 l80
-59 57 25 c31 13 57 26 59 28 2 2 -37 31 -86 66 l-89 62 24 36 c75 110 -30
256 -161 222z m55 -120 c40 -40 23 -79 -49 -114 -40 -19 -43 -17 -70 46 l-20
48 37 20 c48 25 77 25 102 0z"/>
<path d="M12322 15162 c-56 -115 -102 -213 -102 -218 0 -12 88 -56 98 -50 4 2
25 41 47 85 21 45 43 81 47 81 4 0 42 -16 83 -35 87 -41 86 -34 28 -149 -19
-37 -33 -69 -31 -70 25 -17 82 -46 92 -46 11 0 216 404 216 426 0 5 -19 18
-43 28 -23 11 -45 21 -49 24 -4 2 -26 -35 -50 -82 l-43 -85 -82 40 c-46 21
-83 42 -83 44 0 3 18 42 41 86 22 45 39 82 37 84 -9 7 -88 45 -96 45 -4 0 -54
-94 -110 -208z"/>
<path d="M7097 15129 c-26 -16 -47 -32 -47 -35 0 -3 36 -66 80 -139 91 -152
97 -179 49 -219 -32 -27 -67 -33 -98 -16 -10 5 -56 72 -102 149 l-83 140 -36
-21 c-68 -41 -69 -33 15 -174 111 -187 142 -214 237 -214 68 0 147 43 185 102
22 32 28 53 28 97 0 59 -12 84 -140 293 l-41 66 -47 -29z"/>
<path d="M12913 14858 c-66 -106 -123 -198 -126 -204 -6 -10 189 -142 234
-159 9 -3 22 9 36 33 l21 38 -69 43 c-38 24 -71 47 -74 52 -6 9 43 89 54 89 3
0 33 -18 65 -40 64 -42 69 -41 98 7 l17 29 -65 39 c-35 22 -64 43 -64 47 0 12
42 78 49 78 4 0 39 -20 77 -44 73 -47 78 -47 106 2 l18 30 -120 76 c-66 42
-123 76 -128 76 -5 0 -62 -87 -129 -192z"/>
<path d="M13483 14732 c-6 -9 -72 -95 -147 -190 -75 -95 -136 -175 -136 -177
0 -5 83 -65 90 -65 3 0 30 32 60 71 43 57 56 68 66 57 10 -10 10 -28 -1 -88
-23 -122 -21 -130 34 -172 l49 -38 11 83 c20 144 15 135 69 130 38 -4 54 0 81
19 70 47 93 133 54 200 -10 18 -57 64 -103 101 -107 87 -113 90 -127 69z m110
-181 c15 -14 27 -34 27 -46 0 -27 -35 -65 -59 -65 -18 0 -101 54 -101 66 0 3
16 26 36 50 40 48 38 48 97 -5z"/>
<path d="M6483 14710 c-161 -38 -244 -218 -167 -360 36 -67 85 -106 154 -127
123 -36 261 38 306 164 44 124 -37 279 -167 317 -57 17 -76 18 -126 6z m90
-114 c103 -43 133 -180 53 -241 -46 -35 -86 -41 -130 -20 -112 53 -127 202
-27 255 43 23 62 24 104 6z"/>
<path d="M5982 14317 c-23 -24 -42 -47 -42 -52 0 -6 16 -53 35 -105 19 -52 33
-96 31 -97 -2 -2 -45 12 -95 32 -51 19 -98 35 -105 35 -6 0 -31 -20 -55 -44
l-43 -44 173 -57 c171 -55 175 -57 227 -111 30 -30 56 -54 60 -54 3 0 23 17
44 37 l38 37 -55 56 c-55 56 -56 57 -108 228 -29 94 -55 174 -58 176 -3 3 -24
-14 -47 -37z"/>
<path d="M13958 14320 c-14 -16 -89 -95 -166 -176 l-142 -147 108 -103 107
-102 33 31 32 31 -65 66 -65 66 38 37 38 38 20 -22 c10 -12 36 -35 57 -52 l39
-30 29 30 30 30 -56 54 -56 54 33 38 33 38 25 -22 c14 -12 44 -40 68 -63 l43
-41 31 34 31 33 -54 55 c-30 30 -79 76 -110 103 l-55 49 -26 -29z"/>
<path d="M9640 14089 c-190 -82 -858 -371 -1485 -641 -627 -270 -1324 -571
-1550 -669 l-410 -177 -3 -58 -3 -59 878 -476 c843 -456 878 -474 881 -450 9
93 15 114 43 146 23 26 169 104 627 336 328 166 782 395 1007 510 299 151 414
206 425 199 13 -8 13 -11 0 -23 -8 -8 -240 -128 -515 -267 -275 -139 -727
-367 -1004 -508 l-504 -255 -19 -44 c-13 -29 -18 -60 -16 -94 l3 -51 102 -56
102 -56 3 -621 c3 -620 3 -620 25 -665 145 -291 684 -507 1422 -571 203 -17
715 -6 908 20 315 43 621 124 827 220 188 87 341 215 395 331 l26 55 3 616 3
616 147 80 c81 45 284 155 452 246 168 90 465 251 660 357 195 106 444 240
553 299 l197 106 -2 58 -3 59 -370 159 c-203 88 -525 227 -715 308 -488 211
-2429 1047 -2585 1115 -71 31 -136 56 -145 55 -8 0 -170 -68 -360 -150z"/>
<path d="M5595 11098 c-2 -7 -11 -42 -20 -78 -9 -36 -32 -117 -50 -180 -18
-63 -56 -198 -85 -300 -28 -102 -76 -270 -105 -375 -74 -263 -189 -672 -219
-780 -14 -49 -22 -93 -20 -97 3 -4 1 -8 -4 -8 -6 0 -13 -17 -18 -37 -4 -21 -8
-40 -9 -43 0 -3 -10 -36 -21 -75 -12 -38 -29 -97 -38 -130 -9 -33 -43 -155
-76 -270 -33 -116 -61 -220 -63 -230 -2 -11 -15 -58 -29 -105 -14 -47 -56
-193 -93 -325 -36 -132 -77 -276 -89 -320 -40 -136 -79 -279 -81 -295 -1 -8
-5 -22 -8 -30 -26 -61 -57 -200 -57 -252 l0 -61 183 7 c100 3 272 11 382 16
110 6 594 28 1075 50 1181 54 1236 57 1855 85 297 14 599 27 670 31 72 3 254
12 405 19 l275 13 24 -26 c12 -15 32 -37 42 -50 11 -13 25 -20 31 -16 7 4 8 3
4 -4 -9 -15 87 -77 162 -105 52 -18 84 -21 340 -25 283 -4 399 4 431 31 8 7
15 10 15 8 2 -8 76 21 76 30 0 5 6 9 14 9 21 0 138 119 130 132 -4 6 -3 8 4 4
6 -3 13 -3 16 2 5 9 40 8 376 -8 124 -6 320 -15 435 -20 116 -5 260 -12 320
-15 151 -7 1552 -71 2090 -95 242 -11 478 -22 525 -24 389 -21 1091 -48 1096
-43 4 4 7 37 8 74 0 56 -12 111 -73 318 -40 138 -83 288 -96 335 -73 267 -128
456 -136 466 -5 6 -7 13 -4 15 4 5 -67 264 -81 299 -4 8 -8 24 -9 35 -2 11
-28 109 -59 218 -72 253 -153 542 -206 732 -23 83 -62 220 -87 305 -24 85 -46
164 -48 174 -7 30 -55 199 -62 216 -10 24 -12 32 -22 80 -6 25 -19 74 -31 110
-11 36 -20 73 -20 83 0 9 -5 17 -11 17 -5 0 -7 5 -4 10 3 6 3 16 -2 23 -4 6
-9 21 -10 32 -6 34 -115 419 -125 438 -7 14 -23 17 -102 17 -51 0 -95 -3 -98
-6 -3 -3 -2 -17 3 -32 5 -15 27 -97 49 -182 79 -303 140 -535 147 -550 3 -8 7
-24 9 -35 5 -32 155 -599 162 -610 3 -5 7 -18 8 -30 2 -17 46 -189 123 -475
145 -545 205 -773 213 -812 6 -27 15 -48 20 -48 5 0 7 -4 4 -9 -3 -4 13 -75
35 -157 22 -82 42 -156 44 -164 2 -8 17 -69 35 -135 90 -342 111 -427 107
-431 -3 -4 -517 19 -1162 51 -60 3 -157 8 -215 10 -58 3 -145 8 -195 10 -49 3
-706 34 -1460 70 -753 35 -1406 66 -1450 69 l-80 4 -60 -49 c-33 -26 -59 -53
-57 -59 1 -6 -2 -9 -8 -5 -6 3 -28 -9 -49 -27 -22 -19 -61 -45 -88 -58 -48
-25 -50 -25 -338 -25 -342 0 -316 -7 -495 135 l-114 91 -65 -5 c-36 -3 -120
-8 -186 -11 -251 -11 -1374 -65 -1470 -70 -55 -3 -388 -19 -740 -35 -352 -17
-966 -46 -1364 -65 -398 -19 -726 -33 -729 -31 -5 6 39 184 148 591 44 165
102 386 130 490 27 105 84 318 125 475 42 157 110 413 150 570 41 157 88 332
104 390 25 87 45 163 77 290 2 8 20 76 39 150 20 74 37 144 39 155 1 12 5 25
8 30 3 6 13 37 21 70 9 33 39 145 66 250 28 104 51 196 51 202 0 18 -199 18
-205 1z"/>
<path d="M6626 6299 c-143 -16 -273 -84 -381 -201 -113 -123 -161 -260 -152
-438 6 -113 32 -202 84 -287 94 -151 210 -242 367 -288 85 -25 296 -17 385 14
82 29 165 83 197 130 24 35 24 38 24 271 0 261 -4 277 -60 297 -44 15 -351 17
-402 3 -51 -14 -61 -38 -56 -127 5 -98 12 -103 135 -103 l93 0 0 -94 0 -94
-44 -11 c-56 -14 -149 -14 -198 -1 -97 27 -195 131 -224 237 -32 119 -4 230
78 312 64 63 118 85 218 89 83 4 87 3 162 -36 42 -22 84 -42 94 -43 38 -6 73
12 113 57 97 110 75 171 -94 257 -102 51 -213 70 -339 56z"/>
<path d="M9103 6285 c-179 -55 -287 -231 -254 -411 14 -72 41 -130 83 -174 43
-44 174 -105 283 -130 153 -37 185 -58 185 -122 0 -77 -90 -131 -181 -108 -20
6 -67 37 -110 75 -111 98 -153 102 -230 25 -59 -59 -68 -94 -39 -151 46 -88
161 -175 274 -205 85 -23 229 -18 311 11 179 63 266 182 268 365 1 127 -35
212 -113 269 -43 31 -161 72 -279 96 -99 20 -140 41 -158 81 -14 27 -14 37 -3
64 17 41 56 60 123 60 47 0 61 -5 101 -36 89 -67 153 -64 211 12 43 57 58 102
45 135 -25 59 -130 124 -238 148 -70 15 -227 13 -279 -4z"/>
<path d="M10325 6290 c-79 -11 -142 -33 -240 -83 -149 -78 -252 -210 -291
-375 -21 -89 -14 -264 14 -342 59 -166 156 -276 312 -352 110 -54 169 -68 283
-68 182 0 407 107 407 194 0 36 -48 122 -87 157 -44 38 -80 36 -151 -10 -208
-131 -482 0 -500 240 -6 86 11 156 52 214 64 89 163 137 281 137 63 -1 78 -5
159 -47 82 -42 91 -45 122 -35 38 13 108 96 119 143 16 61 -10 96 -110 152
-112 62 -252 91 -370 75z"/>
<path d="M12516 6288 c-27 -5 -81 -24 -120 -42 -228 -106 -356 -312 -356 -571
0 -179 54 -309 180 -436 89 -89 180 -140 292 -163 97 -20 149 -20 245 0 303
62 509 373 464 698 -48 344 -369 579 -705 514z m237 -309 c53 -27 123 -93 147
-140 46 -89 47 -228 1 -316 -27 -53 -94 -117 -149 -144 -67 -32 -169 -32 -237
1 -64 31 -131 98 -157 158 -30 65 -36 184 -14 250 59 178 254 269 409 191z"/>
<path d="M13762 6280 c-109 -29 -187 -74 -272 -160 -130 -129 -188 -288 -177
-484 9 -167 61 -282 182 -402 208 -207 521 -230 757 -58 185 136 282 397 234
632 -21 102 -45 159 -102 239 -142 199 -393 293 -622 233z m266 -304 c101 -52
165 -145 177 -261 21 -195 -120 -362 -305 -359 -112 1 -226 78 -272 182 -29
64 -35 173 -14 243 53 184 252 277 414 195z"/>
<path d="M4594 6268 c-12 -5 -27 -21 -33 -34 -14 -31 -16 -1061 -2 -1097 13
-33 64 -52 141 -51 129 1 140 22 140 284 l0 190 214 0 215 0 3 -211 3 -211 27
-23 c56 -48 196 -41 237 12 21 25 21 36 21 559 l0 533 -24 28 c-22 26 -31 28
-109 31 -149 7 -157 -7 -157 -283 l0 -195 -215 0 -215 0 0 188 c0 213 -8 255
-50 277 -34 17 -163 20 -196 3z"/>
<path d="M5739 6265 c-15 -8 -32 -29 -38 -46 -15 -43 -15 -1008 0 -1062 13
-48 44 -68 116 -74 73 -6 133 13 150 47 10 19 13 149 13 558 l0 534 -29 29
c-28 27 -34 29 -108 29 -48 -1 -88 -6 -104 -15z"/>
<path d="M7334 6268 c-12 -5 -27 -21 -33 -34 -8 -17 -11 -188 -11 -559 0 -517
1 -536 19 -554 29 -29 96 -44 158 -36 102 13 112 39 113 298 l0 177 214 0 215
0 3 -210 c3 -197 4 -211 24 -230 46 -47 181 -49 232 -5 l27 23 3 519 c2 285 0
533 -3 551 -9 51 -52 72 -147 72 -67 0 -81 -3 -105 -24 l-28 -24 -3 -216 -3
-216 -214 0 -213 0 -4 208 c-3 114 -8 215 -12 225 -15 31 -61 47 -138 46 -40
0 -83 -5 -94 -11z"/>
<path d="M10949 6251 l-29 -29 0 -541 c0 -523 1 -542 19 -560 43 -43 173 -51
228 -15 34 22 43 75 43 272 l0 182 215 0 215 0 1 -192 c1 -106 4 -204 8 -217
12 -44 53 -65 128 -65 80 -1 126 16 142 50 8 18 11 182 11 554 l0 529 -24 27
c-20 24 -32 28 -89 32 -98 6 -134 -3 -157 -41 -18 -29 -20 -51 -20 -234 l0
-203 -214 0 -214 0 -4 208 c-2 114 -8 215 -12 225 -15 32 -61 47 -141 47 -71
0 -79 -2 -106 -29z"/>
<path d="M14648 6264 c-15 -8 -31 -27 -35 -42 -5 -15 -8 -261 -8 -547 0 -585
-3 -564 72 -584 50 -14 675 -14 724 -1 47 13 63 49 57 130 -7 98 3 94 -301
100 l-262 5 -2 445 c-2 304 -6 452 -14 466 -6 12 -22 27 -36 33 -35 16 -163
13 -195 -5z"/>
</g>
</svg>
